<svg xmlns="http://www.w3.org/2000/svg" xmlns:xlink="http://www.w3.org/1999/xlink" width="500" zoomAndPan="magnify" viewBox="0 0 375 374.999991" height="500" preserveAspectRatio="xMidYMid meet" version="1.0"><defs><g/><clipPath id="6b32bbaf55"><path d="M 74.578125 74.578125 L 300.328125 74.578125 L 300.328125 300.328125 L 74.578125 300.328125 Z M 74.578125 74.578125 " clip-rule="nonzero"/></clipPath><clipPath id="8eb6812aab"><path d="M 113.164062 114.542969 L 262.183594 114.542969 L 262.183594 260.792969 L 113.164062 260.792969 Z M 113.164062 114.542969 " clip-rule="nonzero"/></clipPath></defs><g clip-path="url(#6b32bbaf55)"><path fill="#161616" d="M 293.34375 217.550781 C 290.484375 227.292969 286.113281 236.539062 280.691406 245.050781 C 276.214844 251.980469 271.121094 258.492188 265.402344 264.414062 C 264.664062 265.222656 263.835938 265.949219 263.050781 266.710938 C 262.253906 267.460938 261.476562 268.238281 260.660156 268.96875 L 258.183594 271.125 L 256.941406 272.203125 L 255.65625 273.226562 L 253.089844 275.277344 C 252.21875 275.941406 251.320312 276.570312 250.4375 277.222656 C 248.699219 278.554688 246.84375 279.730469 245.03125 280.960938 C 244.769531 281.136719 244.492188 281.320312 244.207031 281.515625 C 243.910156 281.691406 243.605469 281.878906 243.285156 282.070312 C 242.644531 282.453125 241.953125 282.863281 241.222656 283.300781 C 239.773438 284.214844 238.058594 285.070312 236.207031 286.054688 C 235.742188 286.292969 235.273438 286.558594 234.78125 286.792969 C 234.285156 287.023438 233.78125 287.257812 233.265625 287.496094 C 232.238281 287.972656 231.171875 288.464844 230.070312 288.972656 C 227.816406 289.855469 225.464844 290.914062 222.898438 291.734375 C 212.773438 295.40625 200.136719 297.675781 187.453125 297.726562 C 174.773438 297.675781 162.132812 295.40625 152.007812 291.734375 C 149.441406 290.914062 147.089844 289.855469 144.835938 288.972656 C 143.734375 288.464844 142.667969 287.972656 141.640625 287.496094 C 141.125 287.257812 140.621094 287.023438 140.125 286.792969 C 139.632812 286.558594 139.167969 286.292969 138.703125 286.054688 C 136.851562 285.070312 135.132812 284.214844 133.6875 283.304688 C 132.953125 282.863281 132.265625 282.453125 131.625 282.070312 C 131.304688 281.878906 130.996094 281.695312 130.699219 281.515625 C 130.414062 281.324219 130.140625 281.136719 129.878906 280.964844 C 122.988281 276.449219 116.515625 271.320312 110.632812 265.558594 C 104.425781 259.359375 99 252.414062 94.21875 245.054688 C 88.792969 236.539062 84.421875 227.292969 81.5625 217.550781 C 78.582031 207.839844 77.203125 197.644531 77.113281 187.453125 C 77.203125 177.261719 78.582031 167.070312 81.5625 157.355469 C 84.421875 147.613281 88.792969 138.371094 94.214844 129.855469 C 98.691406 122.925781 103.785156 116.414062 109.503906 110.492188 C 110.242188 109.683594 111.070312 108.957031 111.855469 108.195312 C 112.652344 107.445312 113.429688 106.671875 114.246094 105.9375 L 116.726562 103.78125 L 117.964844 102.703125 L 119.25 101.679688 L 121.820312 99.628906 C 122.6875 98.964844 123.585938 98.335938 124.46875 97.683594 C 126.210938 96.351562 128.0625 95.179688 129.875 93.945312 C 130.136719 93.769531 130.414062 93.585938 130.699219 93.390625 C 130.996094 93.214844 131.300781 93.03125 131.621094 92.835938 C 132.261719 92.453125 132.953125 92.042969 133.683594 91.605469 C 135.132812 90.691406 136.847656 89.835938 138.699219 88.851562 C 139.167969 88.613281 139.632812 88.347656 140.125 88.113281 C 140.621094 87.882812 141.125 87.648438 141.640625 87.410156 C 142.667969 86.933594 143.734375 86.441406 144.835938 85.933594 C 147.089844 85.050781 149.441406 83.996094 152.007812 83.171875 C 162.132812 79.5 174.769531 77.230469 187.453125 77.179688 C 200.136719 77.230469 212.773438 79.5 222.898438 83.171875 C 225.464844 83.996094 227.816406 85.050781 230.070312 85.933594 C 231.171875 86.441406 232.238281 86.933594 233.265625 87.410156 C 233.78125 87.648438 234.285156 87.882812 234.78125 88.113281 C 235.273438 88.347656 235.738281 88.613281 236.207031 88.851562 C 238.054688 89.835938 239.773438 90.691406 241.21875 91.601562 C 241.953125 92.042969 242.644531 92.453125 243.28125 92.835938 C 243.601562 93.027344 243.910156 93.214844 244.207031 93.390625 C 244.492188 93.582031 244.765625 93.769531 245.027344 93.945312 C 251.917969 98.457031 258.390625 103.585938 264.273438 109.347656 C 270.480469 115.546875 275.90625 122.492188 280.6875 129.855469 C 286.113281 138.367188 290.484375 147.613281 293.34375 157.355469 C 296.324219 167.070312 297.703125 177.261719 297.789062 187.453125 C 297.703125 197.644531 296.324219 207.839844 293.34375 217.550781 Z M 300.328125 187.378906 L 300.324219 187.371094 C 300.234375 176.960938 298.832031 166.546875 295.800781 156.617188 C 292.882812 146.65625 288.417969 137.203125 282.851562 128.519531 L 280.171875 124.496094 C 280.171875 124.496094 279.398438 123.414062 278.238281 121.792969 C 277.121094 120.136719 275.414062 118.09375 273.78125 115.996094 C 272.019531 114.003906 270.332031 111.945312 268.914062 110.542969 C 267.535156 109.101562 266.617188 108.144531 266.617188 108.144531 C 266.617188 108.144531 266.382812 107.90625 265.964844 107.503906 C 265.546875 107.101562 264.949219 106.523438 264.234375 105.832031 C 262.835938 104.40625 260.804688 102.691406 258.816406 100.929688 C 257.792969 100.082031 256.742188 99.269531 255.769531 98.488281 C 255.28125 98.097656 254.8125 97.722656 254.363281 97.367188 C 253.902344 97.035156 253.464844 96.71875 253.058594 96.425781 C 251.445312 95.261719 250.367188 94.484375 250.367188 94.484375 C 250.367188 94.484375 250.132812 94.292969 249.75 94.046875 C 249.375 93.796875 248.875 93.460938 248.375 93.125 C 247.371094 92.453125 246.367188 91.78125 246.367188 91.78125 C 246.097656 91.601562 245.820312 91.410156 245.527344 91.214844 C 245.226562 91.03125 244.910156 90.839844 244.582031 90.644531 C 243.929688 90.25 243.226562 89.828125 242.476562 89.375 C 240.996094 88.441406 239.242188 87.5625 237.347656 86.550781 C 236.871094 86.304688 236.394531 86.035156 235.890625 85.796875 C 235.382812 85.558594 234.867188 85.316406 234.34375 85.074219 C 233.289062 84.585938 232.199219 84.082031 231.070312 83.558594 C 228.765625 82.652344 226.359375 81.570312 223.734375 80.726562 C 213.371094 76.960938 200.429688 74.628906 187.453125 74.578125 C 174.476562 74.628906 161.535156 76.960938 151.171875 80.726562 C 148.550781 81.570312 146.140625 82.652344 143.832031 83.558594 C 142.707031 84.082031 141.617188 84.585938 140.566406 85.074219 C 140.039062 85.320312 139.523438 85.558594 139.015625 85.796875 C 138.511719 86.035156 138.035156 86.304688 137.558594 86.550781 C 135.664062 87.5625 133.910156 88.441406 132.429688 89.375 C 131.679688 89.828125 130.976562 90.25 130.320312 90.644531 C 129.996094 90.839844 129.679688 91.03125 129.378906 91.214844 C 129.085938 91.410156 128.804688 91.601562 128.539062 91.78125 C 128.539062 91.78125 127.535156 92.453125 126.53125 93.125 C 126.03125 93.460938 125.53125 93.796875 125.15625 94.046875 C 124.777344 94.292969 124.542969 94.484375 124.542969 94.484375 C 124.542969 94.484375 123.464844 95.261719 121.847656 96.425781 C 121.441406 96.71875 121.003906 97.035156 120.542969 97.367188 C 120.09375 97.722656 119.625 98.097656 119.136719 98.488281 C 118.164062 99.269531 117.113281 100.082031 116.09375 100.929688 C 114.101562 102.691406 112.070312 104.40625 110.671875 105.832031 C 109.957031 106.523438 109.359375 107.101562 108.941406 107.503906 C 108.523438 107.90625 108.289062 108.144531 108.289062 108.144531 C 108.289062 108.144531 107.371094 109.101562 105.992188 110.542969 C 104.574219 111.945312 102.886719 114.003906 101.125 115.996094 C 99.492188 118.09375 97.78125 120.136719 96.667969 121.792969 C 95.507812 123.414062 94.730469 124.496094 94.730469 124.496094 L 92.054688 128.519531 C 86.488281 137.203125 82.023438 146.660156 79.105469 156.617188 C 76.074219 166.546875 74.671875 176.960938 74.582031 187.371094 L 74.578125 187.378906 L 74.578125 187.527344 L 74.582031 187.539062 C 74.671875 197.945312 76.074219 208.359375 79.105469 218.289062 C 82.023438 228.25 86.488281 237.703125 92.054688 246.386719 L 94.734375 250.410156 C 94.734375 250.410156 95.507812 251.492188 96.667969 253.113281 C 97.785156 254.773438 99.492188 256.8125 101.125 258.910156 C 102.886719 260.902344 104.574219 262.960938 105.992188 264.363281 C 107.371094 265.804688 108.289062 266.761719 108.289062 266.761719 C 108.289062 266.761719 108.523438 267 108.941406 267.402344 C 109.359375 267.804688 109.957031 268.382812 110.671875 269.074219 C 112.070312 270.5 114.101562 272.214844 116.09375 273.976562 C 117.113281 274.824219 118.164062 275.640625 119.136719 276.421875 C 119.625 276.808594 120.09375 277.183594 120.542969 277.539062 C 121.003906 277.871094 121.441406 278.1875 121.847656 278.480469 C 123.464844 279.648438 124.542969 280.421875 124.542969 280.421875 C 124.542969 280.421875 124.777344 280.613281 125.15625 280.859375 C 125.53125 281.113281 126.03125 281.445312 126.53125 281.78125 C 127.535156 282.453125 128.539062 283.125 128.539062 283.125 C 128.808594 283.304688 129.085938 283.496094 129.378906 283.691406 C 129.683594 283.875 129.996094 284.066406 130.324219 284.261719 C 130.976562 284.65625 131.683594 285.078125 132.429688 285.53125 C 133.914062 286.464844 135.664062 287.34375 137.558594 288.355469 C 138.035156 288.601562 138.511719 288.871094 139.015625 289.113281 C 139.523438 289.347656 140.039062 289.589844 140.566406 289.832031 C 141.617188 290.320312 142.710938 290.828125 143.835938 291.347656 C 146.140625 292.253906 148.550781 293.335938 151.171875 294.179688 C 161.535156 297.945312 174.476562 300.277344 187.453125 300.328125 C 200.429688 300.277344 213.371094 297.945312 223.734375 294.179688 C 226.359375 293.335938 228.765625 292.253906 231.074219 291.347656 C 232.199219 290.828125 233.289062 290.320312 234.34375 289.832031 C 234.867188 289.585938 235.386719 289.347656 235.890625 289.113281 C 236.394531 288.871094 236.871094 288.601562 237.347656 288.355469 C 239.242188 287.34375 240.996094 286.464844 242.476562 285.53125 C 243.226562 285.078125 243.929688 284.65625 244.585938 284.261719 C 244.910156 284.066406 245.226562 283.875 245.527344 283.691406 C 245.820312 283.496094 246.101562 283.304688 246.367188 283.125 C 246.367188 283.125 247.371094 282.453125 248.375 281.78125 C 248.875 281.445312 249.375 281.113281 249.75 280.859375 C 250.132812 280.613281 250.367188 280.421875 250.367188 280.421875 C 250.367188 280.421875 251.445312 279.648438 253.058594 278.480469 C 253.464844 278.1875 253.902344 277.871094 254.363281 277.539062 C 254.8125 277.183594 255.28125 276.808594 255.769531 276.421875 C 256.742188 275.640625 257.792969 274.824219 258.816406 273.976562 C 260.804688 272.214844 262.835938 270.5 264.234375 269.074219 C 264.949219 268.382812 265.546875 267.804688 265.964844 267.402344 C 266.382812 267 266.617188 266.761719 266.617188 266.761719 C 266.617188 266.761719 267.535156 265.804688 268.914062 264.363281 C 270.332031 262.960938 272.019531 260.902344 273.78125 258.910156 C 275.414062 256.8125 277.125 254.769531 278.238281 253.113281 C 279.402344 251.492188 280.171875 250.410156 280.171875 250.410156 L 282.851562 246.386719 C 288.417969 237.703125 292.882812 228.25 295.800781 218.289062 C 298.832031 208.359375 300.234375 197.945312 300.324219 187.535156 L 300.328125 187.527344 L 300.328125 187.378906 " fill-opacity="1" fill-rule="nonzero"/></g><g clip-path="url(#8eb6812aab)"><path fill="#0c6980" d="M 262.167969 189.648438 C 261.351562 148.1875 227.046875 114.542969 185.578125 114.542969 C 149.324219 114.542969 119.574219 140.207031 113.164062 174.320312 C 115.425781 166.96875 119.855469 157.515625 128.464844 149.503906 C 145.332031 133.765625 158.121094 132.070312 158.121094 132.070312 C 119.699219 152.300781 109.835938 200.234375 123.6875 228.851562 C 131.761719 241.636719 143.542969 251.910156 157.460938 258.160156 C 161.355469 259.101562 165.125 259.257812 165.03125 254.011719 L 165.0625 254.011719 C 162.707031 245.027344 157.492188 227.847656 154.917969 225.425781 C 151.554688 222.285156 143.953125 223.984375 140.90625 220.183594 C 137.855469 216.347656 126.578125 168.070312 126.578125 168.070312 C 126.578125 168.070312 127.582031 166.90625 128.621094 167.316406 C 129.65625 167.785156 142.160156 210.820312 143.417969 211.796875 C 144.675781 212.769531 144.457031 212.203125 145.175781 212.234375 C 145.710938 212.078125 146.464844 211.984375 146.621094 209.972656 C 146.78125 207.929688 132.832031 167.753906 132.800781 167.09375 C 132.738281 166.40625 132.578125 164.300781 134.152344 164.582031 C 135.722656 164.835938 150.519531 206.644531 151.429688 207.679688 C 152.371094 208.714844 152.90625 208.464844 153.597656 208.402344 C 154.066406 208.023438 154.476562 207.992188 154.476562 206.675781 C 154.507812 205.386719 138.203125 164.046875 139.207031 162.855469 C 140.214844 161.628906 141.5 163.324219 141.910156 163.890625 C 142.320312 164.457031 158.214844 203.972656 159.660156 205.386719 C 161.074219 206.800781 161.667969 206.421875 162.171875 206.234375 C 162.769531 205.730469 162.988281 206.265625 163.335938 204.726562 C 163.648438 203.15625 144.769531 162.445312 145.238281 161.441406 C 145.742188 160.46875 147.3125 160.71875 147.3125 160.71875 C 147.3125 160.71875 170.464844 204.726562 170.6875 209.535156 C 170.90625 214.371094 163.902344 218.421875 163.460938 222.945312 C 163.085938 226.433594 171.316406 245.25 176.027344 254.921875 C 177.03125 256.746094 178.730469 259.226562 180.960938 260.167969 C 184.699219 261.773438 186.207031 260.261719 186.238281 256.496094 L 186.679688 214.023438 C 186.519531 212.578125 186.269531 211.167969 185.765625 210.128906 C 185.199219 209.03125 184.382812 208.183594 183.628906 207.617188 C 176.214844 205.136719 170.78125 197.941406 170.53125 185.15625 C 170.246094 168.949219 178.382812 149.851562 188.90625 149.851562 C 199.433594 149.851562 208.324219 168.949219 208.636719 185.15625 C 208.890625 197.21875 204.300781 204.289062 197.640625 207.144531 C 196.855469 207.835938 195.789062 208.90625 195.128906 210.191406 C 194.6875 211.105469 194.46875 212.707031 194.40625 214.277344 L 196.039062 255.644531 L 196.070312 255.644531 C 196.070312 255.644531 197.390625 259.761719 199.621094 259.632812 C 200.75 259.574219 201.503906 258.160156 201.976562 256.808594 L 201.945312 256.808594 C 201.945312 256.808594 202.101562 256.242188 202.414062 255.238281 C 202.542969 254.640625 202.605469 254.234375 202.605469 254.234375 L 202.699219 254.265625 C 206.5625 241.261719 223.9375 182.582031 225.253906 176.863281 C 226.761719 170.425781 230.785156 155.726562 235.152344 158.207031 C 239.519531 160.6875 241.246094 179.253906 238.636719 199.542969 C 236 219.835938 231.222656 231.867188 226.324219 236.925781 C 221.390625 241.949219 215.671875 238.558594 213.378906 244.839844 C 211.839844 249.113281 210.773438 253.886719 210.238281 256.558594 C 210.394531 257.433594 210.992188 259.445312 213.066406 259.761719 C 214.132812 259.949219 215.359375 259.699219 216.425781 259.382812 C 217.277344 259.007812 218.15625 258.660156 219.003906 258.253906 C 244.984375 246.535156 262.765625 220.246094 262.167969 189.648438 " fill-opacity="1" fill-rule="evenodd"/></g><g fill="#161616" fill-opacity="1"><g transform="translate(100.57927, 221.178365)"><g><path d="M 2.4375 5.90625 L 4.3125 3.671875 L 4.28125 3.625 L 3.609375 1.984375 L 1.234375 2.96875 L 0.34375 0.84375 L 8.75 -2.640625 L 10.3125 1.125 C 10.769531 2.226562 10.875 3.191406 10.625 4.015625 C 10.375 4.835938 9.773438 5.441406 8.828125 5.828125 C 7.535156 6.359375 6.421875 6.222656 5.484375 5.421875 L 3.453125 8.328125 Z M 5.28125 1.296875 L 5.953125 2.9375 C 6.140625 3.394531 6.40625 3.703125 6.75 3.859375 C 7.09375 4.015625 7.484375 4.003906 7.921875 3.828125 C 8.347656 3.648438 8.617188 3.382812 8.734375 3.03125 C 8.859375 2.6875 8.828125 2.285156 8.640625 1.828125 L 7.96875 0.1875 Z M 5.28125 1.296875 "/></g></g></g><g fill="#161616" fill-opacity="1"><g transform="translate(104.681319, 230.87451)"><g><path d="M 10.25 3.515625 L 7.921875 -0.6875 L 6.34375 0.1875 L 8.4375 3.984375 L 6.84375 4.859375 L 4.75 1.0625 L 3.140625 1.953125 L 5.53125 6.28125 L 3.9375 7.15625 L 0.4375 0.796875 L 8.40625 -3.578125 L 11.84375 2.65625 Z M 10.25 3.515625 "/></g></g></g><g fill="#161616" fill-opacity="1"><g transform="translate(109.489534, 239.475347)"><g><path d="M 10.078125 -1.625 C 10.859375 -0.507812 11.257812 0.660156 11.28125 1.890625 L 9.3125 2.203125 C 9.257812 1.660156 9.148438 1.109375 8.984375 0.546875 C 8.816406 -0.00390625 8.628906 -0.425781 8.421875 -0.71875 C 8.046875 -1.269531 7.679688 -1.421875 7.328125 -1.171875 C 7.085938 -1.003906 6.988281 -0.734375 7.03125 -0.359375 C 7.082031 0.00390625 7.1875 0.414062 7.34375 0.875 C 7.507812 1.332031 7.65625 1.804688 7.78125 2.296875 C 7.90625 2.785156 7.894531 3.273438 7.75 3.765625 C 7.613281 4.265625 7.296875 4.6875 6.796875 5.03125 C 6.078125 5.53125 5.320312 5.640625 4.53125 5.359375 C 3.738281 5.085938 3.039062 4.515625 2.4375 3.640625 C 2.007812 3.023438 1.691406 2.335938 1.484375 1.578125 C 1.273438 0.828125 1.195312 0.0976562 1.25 -0.609375 L 3.234375 -0.875 C 3.171875 -0.28125 3.207031 0.34375 3.34375 1 C 3.488281 1.65625 3.703125 2.1875 3.984375 2.59375 C 4.191406 2.894531 4.410156 3.09375 4.640625 3.1875 C 4.878906 3.289062 5.101562 3.265625 5.3125 3.109375 C 5.519531 2.972656 5.625 2.753906 5.625 2.453125 C 5.625 2.160156 5.554688 1.84375 5.421875 1.5 C 5.285156 1.164062 5.160156 0.789062 5.046875 0.375 C 4.929688 -0.0390625 4.835938 -0.441406 4.765625 -0.828125 C 4.691406 -1.210938 4.734375 -1.601562 4.890625 -2 C 5.054688 -2.40625 5.347656 -2.753906 5.765625 -3.046875 C 6.441406 -3.515625 7.171875 -3.617188 7.953125 -3.359375 C 8.742188 -3.109375 9.453125 -2.53125 10.078125 -1.625 Z M 10.078125 -1.625 "/></g></g></g><g fill="#161616" fill-opacity="1"><g transform="translate(114.930474, 247.195901)"><g><path d="M 10.609375 1.265625 L 8.828125 -0.8125 L 3.328125 3.890625 L 1.828125 2.140625 L 7.328125 -2.5625 L 5.5625 -4.625 L 6.984375 -5.84375 L 12.03125 0.046875 Z M 10.609375 1.265625 "/></g></g></g><g fill="#161616" fill-opacity="1"><g transform="translate(120.818922, 254.081496)"><g><path d="M 6.203125 3.546875 L 3.3125 0.828125 L 1.6875 1.578125 L -0.046875 -0.046875 L 9.046875 -3.984375 L 10.78125 -2.359375 L 7.34375 6.90625 L 5.546875 5.21875 Z M 6.9375 1.796875 L 8.28125 -1.546875 L 5.015625 0 Z M 6.9375 1.796875 "/></g></g></g><g fill="#161616" fill-opacity="1"><g transform="translate(129.009055, 261.677234)"><g><path d="M 12.71875 -1.9375 L 9.59375 2.3125 C 8.875 3.28125 8.003906 3.828125 6.984375 3.953125 C 5.972656 4.085938 4.953125 3.78125 3.921875 3.03125 C 2.890625 2.269531 2.273438 1.375 2.078125 0.34375 C 1.890625 -0.675781 2.15625 -1.671875 2.875 -2.640625 L 6 -6.890625 L 7.859375 -5.515625 L 4.734375 -1.265625 C 4.367188 -0.773438 4.222656 -0.28125 4.296875 0.21875 C 4.367188 0.726562 4.628906 1.148438 5.078125 1.484375 C 5.523438 1.804688 5.988281 1.921875 6.46875 1.828125 C 6.945312 1.734375 7.367188 1.441406 7.734375 0.953125 L 10.859375 -3.296875 Z M 12.71875 -1.9375 "/></g></g></g><g fill="#161616" fill-opacity="1"><g transform="translate(137.913813, 268.134458)"><g><path d="M 5.546875 3.171875 L 5.65625 0.28125 L 5.59375 0.25 L 4.0625 -0.625 L 2.796875 1.59375 L 0.78125 0.453125 L 5.28125 -7.453125 L 8.828125 -5.4375 C 9.867188 -4.84375 10.539062 -4.140625 10.84375 -3.328125 C 11.144531 -2.523438 11.046875 -1.679688 10.546875 -0.796875 C 9.847656 0.410156 8.882812 0.976562 7.65625 0.90625 L 7.828125 4.46875 Z M 4.96875 -2.203125 L 6.5 -1.328125 C 6.9375 -1.078125 7.335938 -0.992188 7.703125 -1.078125 C 8.066406 -1.171875 8.363281 -1.421875 8.59375 -1.828125 C 8.820312 -2.234375 8.878906 -2.609375 8.765625 -2.953125 C 8.648438 -3.304688 8.375 -3.609375 7.9375 -3.859375 L 6.40625 -4.734375 Z M 4.96875 -2.203125 "/></g></g></g><g fill="#161616" fill-opacity="1"><g transform="translate(147.115718, 273.320968)"><g><path d="M 7.0625 1.171875 L 3.40625 -0.390625 L 2.125 0.90625 L -0.0625 -0.03125 L 7.09375 -6.875 L 9.28125 -5.9375 L 9.28125 3.921875 L 7 2.96875 Z M 7.125 -0.71875 L 7.25 -4.328125 L 4.703125 -1.75 Z M 7.125 -0.71875 "/></g></g></g><g fill="#161616" fill-opacity="1"><g transform="translate(157.436591, 277.619854)"><g><path d="M 8.953125 2.5625 L 6.984375 2 L 4.5 -4.546875 L 2.953125 0.84375 L 0.875 0.25 L 3.375 -8.5 L 5.34375 -7.9375 L 7.828125 -1.375 L 9.375 -6.78125 L 11.453125 -6.1875 Z M 8.953125 2.5625 "/></g></g></g><g fill="#161616" fill-opacity="1"><g transform="translate(168.366415, 280.616058)"><g><path d="M 8.96875 -5.8125 L 6.265625 -6.265625 L 5.046875 0.859375 L 2.765625 0.46875 L 3.984375 -6.65625 L 1.3125 -7.109375 L 1.625 -8.96875 L 9.28125 -7.671875 Z M 8.96875 -5.8125 "/></g></g></g><g fill="#161616" fill-opacity="1"><g transform="translate(177.271092, 282.093485)"><g><path d="M 8.5 -6.734375 L 3.703125 -7.046875 L 3.578125 -5.234375 L 7.90625 -4.953125 L 7.78125 -3.140625 L 3.453125 -3.421875 L 3.34375 -1.59375 L 8.28125 -1.265625 L 8.15625 0.546875 L 0.90625 0.0625 L 1.5 -9.015625 L 8.609375 -8.546875 Z M 8.5 -6.734375 "/></g></g></g><g fill="#161616" fill-opacity="1"><g transform="translate(186.978256, 282.594593)"><g/></g></g><g fill="#161616" fill-opacity="1"><g transform="translate(190.965059, 282.636911)"><g><path d="M 7.6875 -0.25 L 6.296875 -1.390625 C 5.585938 -0.679688 4.757812 -0.285156 3.8125 -0.203125 C 2.914062 -0.128906 2.15625 -0.316406 1.53125 -0.765625 C 0.914062 -1.222656 0.578125 -1.832031 0.515625 -2.59375 C 0.460938 -3.144531 0.578125 -3.625 0.859375 -4.03125 C 1.148438 -4.4375 1.5625 -4.816406 2.09375 -5.171875 C 1.53125 -5.859375 1.222656 -6.507812 1.171875 -7.125 C 1.117188 -7.789062 1.304688 -8.34375 1.734375 -8.78125 C 2.171875 -9.21875 2.785156 -9.46875 3.578125 -9.53125 C 4.335938 -9.59375 4.972656 -9.453125 5.484375 -9.109375 C 5.992188 -8.773438 6.273438 -8.304688 6.328125 -7.703125 C 6.378906 -7.148438 6.234375 -6.671875 5.890625 -6.265625 C 5.554688 -5.859375 5.0625 -5.457031 4.40625 -5.0625 C 4.90625 -4.582031 5.425781 -4.117188 5.96875 -3.671875 C 6.1875 -4.128906 6.34375 -4.628906 6.4375 -5.171875 L 7.96875 -4.28125 C 7.800781 -3.675781 7.566406 -3.125 7.265625 -2.625 L 8.71875 -1.453125 Z M 2.921875 -7.28125 C 2.953125 -6.914062 3.144531 -6.503906 3.5 -6.046875 C 4.269531 -6.554688 4.632812 -7.0625 4.59375 -7.5625 C 4.570312 -7.789062 4.476562 -7.96875 4.3125 -8.09375 C 4.15625 -8.226562 3.953125 -8.285156 3.703125 -8.265625 C 3.441406 -8.242188 3.238281 -8.140625 3.09375 -7.953125 C 2.957031 -7.773438 2.898438 -7.550781 2.921875 -7.28125 Z M 3.765625 -1.796875 C 4.234375 -1.828125 4.671875 -2.03125 5.078125 -2.40625 C 4.078125 -3.25 3.398438 -3.835938 3.046875 -4.171875 C 2.515625 -3.742188 2.269531 -3.316406 2.3125 -2.890625 C 2.34375 -2.535156 2.492188 -2.253906 2.765625 -2.046875 C 3.035156 -1.847656 3.367188 -1.765625 3.765625 -1.796875 Z M 3.765625 -1.796875 "/></g></g></g><g fill="#161616" fill-opacity="1"><g transform="translate(200.78439, 281.674637)"><g/></g></g><g fill="#161616" fill-opacity="1"><g transform="translate(204.735489, 281.12295)"><g><path d="M 2.90625 -10.125 C 3.5625 -10.28125 4.242188 -10.300781 4.953125 -10.1875 C 5.660156 -10.070312 6.289062 -9.835938 6.84375 -9.484375 L 5.890625 -7.625 C 5.523438 -7.914062 5.117188 -8.113281 4.671875 -8.21875 C 4.222656 -8.320312 3.800781 -8.328125 3.40625 -8.234375 C 2.707031 -8.066406 2.175781 -7.679688 1.8125 -7.078125 C 1.445312 -6.484375 1.351562 -5.828125 1.53125 -5.109375 C 1.707031 -4.359375 2.09375 -3.789062 2.6875 -3.40625 C 3.289062 -3.019531 3.941406 -2.910156 4.640625 -3.078125 C 5.003906 -3.171875 5.363281 -3.359375 5.71875 -3.640625 C 6.070312 -3.921875 6.367188 -4.253906 6.609375 -4.640625 L 8.265625 -3.5625 C 7.890625 -2.96875 7.410156 -2.441406 6.828125 -1.984375 C 6.242188 -1.523438 5.628906 -1.21875 4.984375 -1.0625 C 3.660156 -0.75 2.445312 -0.925781 1.34375 -1.59375 C 0.25 -2.257812 -0.453125 -3.238281 -0.765625 -4.53125 C -1.066406 -5.800781 -0.863281 -6.96875 -0.15625 -8.03125 C 0.539062 -9.101562 1.5625 -9.800781 2.90625 -10.125 Z M 2.90625 -10.125 "/></g></g></g><g fill="#161616" fill-opacity="1"><g transform="translate(214.550384, 278.722949)"><g><path d="M 5.125 -9.546875 L 0.59375 -7.9375 L 1.203125 -6.234375 L 5.296875 -7.6875 L 5.90625 -5.96875 L 1.8125 -4.515625 L 2.421875 -2.78125 L 7.09375 -4.4375 L 7.703125 -2.734375 L 0.859375 -0.296875 L -2.1875 -8.859375 L 4.515625 -11.25 Z M 5.125 -9.546875 "/></g></g></g><g fill="#161616" fill-opacity="1"><g transform="translate(223.847128, 275.373056)"><g><path d="M 5.75 -2.796875 L 3.421875 -4.515625 L 3.359375 -4.484375 L 1.765625 -3.71875 L 2.890625 -1.40625 L 0.8125 -0.390625 L -3.15625 -8.578125 L 0.515625 -10.359375 C 1.585938 -10.878906 2.539062 -11.035156 3.375 -10.828125 C 4.21875 -10.628906 4.863281 -10.070312 5.3125 -9.15625 C 5.914062 -7.894531 5.835938 -6.78125 5.078125 -5.8125 L 8.109375 -3.9375 Z M 0.984375 -5.34375 L 2.578125 -6.109375 C 3.023438 -6.328125 3.316406 -6.609375 3.453125 -6.953125 C 3.585938 -7.304688 3.554688 -7.691406 3.359375 -8.109375 C 3.148438 -8.535156 2.867188 -8.796875 2.515625 -8.890625 C 2.160156 -8.992188 1.757812 -8.9375 1.3125 -8.71875 L -0.28125 -7.953125 Z M 0.984375 -5.34375 "/></g></g></g><g fill="#161616" fill-opacity="1"><g transform="translate(233.310491, 270.71331)"><g><path d="M 5 -3.171875 L 2.96875 -1.890625 L -4.890625 -7.65625 L -2.796875 -8.984375 L 2.734375 -4.59375 L 1.125 -11.484375 L 3.125 -12.765625 Z M 5 -3.171875 "/></g></g></g><g fill="#161616" fill-opacity="1"><g transform="translate(242.209603, 264.961216)"><g><path d="M 1.703125 -10.703125 L -2.046875 -7.6875 L -0.90625 -6.28125 L 2.46875 -9 L 3.59375 -7.578125 L 0.21875 -4.859375 L 1.375 -3.421875 L 5.234375 -6.53125 L 6.375 -5.125 L 0.703125 -0.5625 L -5 -7.65625 L 0.5625 -12.125 Z M 1.703125 -10.703125 "/></g></g></g><g fill="#161616" fill-opacity="1"><g transform="translate(249.870771, 258.737301)"><g><path d="M -2.828125 -10.140625 C -2.347656 -10.617188 -1.773438 -10.992188 -1.109375 -11.265625 C -0.453125 -11.535156 0.195312 -11.664062 0.84375 -11.65625 L 1.03125 -9.578125 C 0.5625 -9.628906 0.109375 -9.585938 -0.328125 -9.453125 C -0.765625 -9.316406 -1.128906 -9.101562 -1.421875 -8.8125 C -1.929688 -8.300781 -2.179688 -7.691406 -2.171875 -6.984375 C -2.160156 -6.285156 -1.890625 -5.675781 -1.359375 -5.15625 C -0.816406 -4.601562 -0.195312 -4.316406 0.5 -4.296875 C 1.207031 -4.285156 1.816406 -4.535156 2.328125 -5.046875 C 2.597656 -5.304688 2.8125 -5.648438 2.96875 -6.078125 C 3.125 -6.503906 3.203125 -6.945312 3.203125 -7.40625 L 5.15625 -7.375 C 5.15625 -6.664062 5.023438 -5.960938 4.765625 -5.265625 C 4.515625 -4.578125 4.15625 -3.992188 3.6875 -3.515625 C 2.71875 -2.554688 1.59375 -2.070312 0.3125 -2.0625 C -0.96875 -2.050781 -2.078125 -2.515625 -3.015625 -3.453125 C -3.929688 -4.378906 -4.375 -5.476562 -4.34375 -6.75 C -4.3125 -8.03125 -3.804688 -9.160156 -2.828125 -10.140625 Z M -2.828125 -10.140625 "/></g></g></g><g fill="#161616" fill-opacity="1"><g transform="translate(256.97222, 251.549648)"><g><path d="M -0.640625 -10.8125 L -3.65625 -7.0625 L -2.25 -5.9375 L 0.484375 -9.328125 L 1.90625 -8.1875 L -0.828125 -4.796875 L 0.609375 -3.640625 L 3.71875 -7.5 L 5.125 -6.359375 L 0.5625 -0.703125 L -6.515625 -6.40625 L -2.046875 -11.953125 Z M -0.640625 -10.8125 "/></g></g></g><g fill="#161616" fill-opacity="1"><g transform="translate(263.134299, 243.823276)"><g><path d="M 3.4375 -5.390625 L 0.5625 -5.625 L 0.515625 -5.578125 L -0.421875 -4.09375 L 1.734375 -2.71875 L 0.484375 -0.765625 L -7.1875 -5.65625 L -5 -9.09375 C -4.351562 -10.101562 -3.617188 -10.738281 -2.796875 -11 C -1.972656 -11.257812 -1.132812 -11.117188 -0.28125 -10.578125 C 0.894531 -9.828125 1.421875 -8.835938 1.296875 -7.609375 L 4.84375 -7.609375 Z M -1.953125 -5.078125 L -1.015625 -6.5625 C -0.742188 -6.976562 -0.640625 -7.367188 -0.703125 -7.734375 C -0.765625 -8.109375 -0.992188 -8.421875 -1.390625 -8.671875 C -1.785156 -8.921875 -2.160156 -8.992188 -2.515625 -8.890625 C -2.878906 -8.785156 -3.195312 -8.523438 -3.46875 -8.109375 L -4.40625 -6.625 Z M -1.953125 -5.078125 "/></g></g></g><g fill="#161616" fill-opacity="1"><g transform="translate(268.602394, 234.963057)"><g><path d="M -8.046875 -9.125 L -7.515625 -6.953125 L -8.3125 -5.421875 L -9.609375 -7.65625 Z M 1.5 -2.84375 L 0.421875 -0.796875 L -7.625 -5.015625 L -6.546875 -7.0625 Z M 1.5 -2.84375 "/></g></g></g><g fill="#161616" fill-opacity="1"><g transform="translate(271.07377, 230.43188)"><g><path d="M 1.140625 -7.0625 L -0.390625 -3.390625 L 0.890625 -2.140625 L -0.03125 0.0625 L -6.90625 -7.0625 L -5.984375 -9.25 L 3.890625 -9.296875 L 2.9375 -7.015625 Z M -0.75 -7.125 L -4.34375 -7.21875 L -1.765625 -4.703125 Z M -0.75 -7.125 "/></g></g></g><g fill="#161616" fill-opacity="1"><g transform="translate(105.048008, 173.628711)"><g><path d="M 2.71875 -10.203125 C 2.65625 -9.960938 2.5 -9.828125 2.25 -9.796875 L -4.671875 -8.6875 C -4.753906 -8.675781 -4.8125 -8.625 -4.84375 -8.53125 L -5.234375 -7.046875 C -5.265625 -6.941406 -5.226562 -6.875 -5.125 -6.84375 L 0.9375 -5.234375 C 1.0625 -5.203125 1.148438 -5.132812 1.203125 -5.03125 C 1.265625 -4.925781 1.28125 -4.8125 1.25 -4.6875 L 0.421875 -1.59375 C 0.390625 -1.46875 0.320312 -1.375 0.21875 -1.3125 C 0.125 -1.25 0.015625 -1.234375 -0.109375 -1.265625 L -15.921875 -5.484375 C -16.035156 -5.515625 -16.125 -5.582031 -16.1875 -5.6875 C -16.25 -5.789062 -16.265625 -5.90625 -16.234375 -6.03125 L -14.390625 -12.953125 C -14.109375 -13.992188 -13.644531 -14.851562 -13 -15.53125 C -12.363281 -16.21875 -11.59375 -16.675781 -10.6875 -16.90625 C -9.789062 -17.132812 -8.832031 -17.113281 -7.8125 -16.84375 C -6.769531 -16.5625 -5.929688 -16.054688 -5.296875 -15.328125 C -4.660156 -14.609375 -4.285156 -13.742188 -4.171875 -12.734375 C -4.148438 -12.609375 -4.082031 -12.550781 -3.96875 -12.5625 L 3.171875 -13.921875 L 3.390625 -13.921875 C 3.585938 -13.867188 3.65625 -13.71875 3.59375 -13.46875 Z M -11.859375 -8.8125 C -11.890625 -8.707031 -11.851562 -8.640625 -11.75 -8.609375 L -8.46875 -7.75 C -8.351562 -7.71875 -8.28125 -7.753906 -8.25 -7.859375 L -7.5625 -10.453125 C -7.40625 -11.035156 -7.4375 -11.550781 -7.65625 -12 C -7.882812 -12.445312 -8.269531 -12.742188 -8.8125 -12.890625 C -9.375 -13.035156 -9.867188 -12.96875 -10.296875 -12.6875 C -10.722656 -12.414062 -11.015625 -11.988281 -11.171875 -11.40625 Z M -11.859375 -8.8125 "/></g></g></g><g fill="#161616" fill-opacity="1"><g transform="translate(108.864109, 159.335318)"><g><path d="M -7.234375 -18.15625 C -7.117188 -18.09375 -7.039062 -18.007812 -7 -17.90625 C -6.957031 -17.800781 -6.960938 -17.6875 -7.015625 -17.5625 L -10.171875 -10.734375 C -10.222656 -10.628906 -10.195312 -10.550781 -10.09375 -10.5 L -7.4375 -9.265625 C -7.332031 -9.222656 -7.253906 -9.253906 -7.203125 -9.359375 L -5.21875 -13.671875 C -5.15625 -13.796875 -5.070312 -13.875 -4.96875 -13.90625 C -4.863281 -13.9375 -4.75 -13.925781 -4.625 -13.875 L -2.28125 -12.796875 C -2.15625 -12.734375 -2.070312 -12.648438 -2.03125 -12.546875 C -2 -12.453125 -2.015625 -12.34375 -2.078125 -12.21875 L -4.0625 -7.90625 C -4.113281 -7.800781 -4.085938 -7.722656 -3.984375 -7.671875 L -1.109375 -6.359375 C -1.003906 -6.304688 -0.925781 -6.332031 -0.875 -6.4375 L 2.28125 -13.265625 C 2.332031 -13.390625 2.410156 -13.46875 2.515625 -13.5 C 2.628906 -13.539062 2.75 -13.535156 2.875 -13.484375 L 5.25 -12.390625 C 5.351562 -12.335938 5.425781 -12.253906 5.46875 -12.140625 C 5.507812 -12.035156 5.503906 -11.921875 5.453125 -11.796875 L 0.6875 -1.5 C 0.632812 -1.375 0.550781 -1.289062 0.4375 -1.25 C 0.320312 -1.21875 0.210938 -1.226562 0.109375 -1.28125 L -14.75 -8.140625 C -14.863281 -8.191406 -14.9375 -8.269531 -14.96875 -8.375 C -15.007812 -8.476562 -15.003906 -8.59375 -14.953125 -8.71875 L -10.1875 -19.015625 C -10.132812 -19.140625 -10.050781 -19.222656 -9.9375 -19.265625 C -9.832031 -19.304688 -9.722656 -19.300781 -9.609375 -19.25 Z M -7.234375 -18.15625 "/></g></g></g><g fill="#161616" fill-opacity="1"><g transform="translate(114.654767, 146.690171)"><g><path d="M 4.34375 -5.953125 C 3.59375 -4.867188 2.753906 -4.039062 1.828125 -3.46875 C 0.898438 -2.894531 -0.046875 -2.613281 -1.015625 -2.625 C -1.992188 -2.644531 -2.921875 -2.953125 -3.796875 -3.546875 L -4.0625 -3.734375 C -4.164062 -3.804688 -4.226562 -3.898438 -4.25 -4.015625 C -4.269531 -4.128906 -4.238281 -4.242188 -4.15625 -4.359375 L -2.390625 -6.9375 C -2.316406 -7.050781 -2.234375 -7.125 -2.140625 -7.15625 C -2.046875 -7.1875 -1.96875 -7.175781 -1.90625 -7.125 L -1.65625 -6.96875 C -1.226562 -6.664062 -0.691406 -6.617188 -0.046875 -6.828125 C 0.585938 -7.046875 1.144531 -7.5 1.625 -8.1875 C 2.03125 -8.78125 2.203125 -9.304688 2.140625 -9.765625 C 2.085938 -10.234375 1.894531 -10.582031 1.5625 -10.8125 C 1.164062 -11.070312 0.75 -11.101562 0.3125 -10.90625 C -0.113281 -10.71875 -0.753906 -10.285156 -1.609375 -9.609375 L -2.046875 -9.265625 C -2.929688 -8.609375 -3.757812 -8.0625 -4.53125 -7.625 C -5.3125 -7.195312 -6.15625 -6.957031 -7.0625 -6.90625 C -7.96875 -6.851562 -8.851562 -7.125 -9.71875 -7.71875 C -10.550781 -8.289062 -11.128906 -9.015625 -11.453125 -9.890625 C -11.773438 -10.773438 -11.84375 -11.71875 -11.65625 -12.71875 C -11.46875 -13.726562 -11.035156 -14.726562 -10.359375 -15.71875 C -9.640625 -16.757812 -8.800781 -17.566406 -7.84375 -18.140625 C -6.894531 -18.710938 -5.910156 -18.992188 -4.890625 -18.984375 C -3.878906 -18.984375 -2.929688 -18.675781 -2.046875 -18.0625 L -1.875 -17.953125 C -1.769531 -17.878906 -1.703125 -17.785156 -1.671875 -17.671875 C -1.648438 -17.566406 -1.679688 -17.457031 -1.765625 -17.34375 L -3.53125 -14.765625 C -3.613281 -14.660156 -3.691406 -14.585938 -3.765625 -14.546875 C -3.847656 -14.503906 -3.921875 -14.503906 -3.984375 -14.546875 L -4.171875 -14.671875 C -4.640625 -14.992188 -5.203125 -15.070312 -5.859375 -14.90625 C -6.515625 -14.738281 -7.082031 -14.300781 -7.5625 -13.59375 C -7.925781 -13.0625 -8.101562 -12.570312 -8.09375 -12.125 C -8.082031 -11.6875 -7.878906 -11.332031 -7.484375 -11.0625 C -7.179688 -10.851562 -6.867188 -10.773438 -6.546875 -10.828125 C -6.222656 -10.890625 -5.835938 -11.0625 -5.390625 -11.34375 C -4.953125 -11.625 -4.3125 -12.082031 -3.46875 -12.71875 C -2.488281 -13.457031 -1.695312 -14.003906 -1.09375 -14.359375 C -0.488281 -14.722656 0.242188 -14.945312 1.109375 -15.03125 C 1.984375 -15.113281 2.867188 -14.847656 3.765625 -14.234375 C 4.617188 -13.648438 5.210938 -12.910156 5.546875 -12.015625 C 5.878906 -11.128906 5.941406 -10.160156 5.734375 -9.109375 C 5.535156 -8.054688 5.070312 -7.003906 4.34375 -5.953125 Z M 4.34375 -5.953125 "/></g></g></g><g fill="#161616" fill-opacity="1"><g transform="translate(122.757571, 134.863584)"><g><path d="M -2.875 -21.71875 C -2.78125 -21.8125 -2.671875 -21.859375 -2.546875 -21.859375 C -2.429688 -21.859375 -2.332031 -21.8125 -2.25 -21.71875 L -0.359375 -19.875 C -0.265625 -19.789062 -0.21875 -19.691406 -0.21875 -19.578125 C -0.21875 -19.460938 -0.265625 -19.359375 -0.359375 -19.265625 L -3.234375 -16.328125 C -3.316406 -16.242188 -3.316406 -16.160156 -3.234375 -16.078125 L 6.140625 -6.921875 C 6.234375 -6.828125 6.28125 -6.71875 6.28125 -6.59375 C 6.28125 -6.476562 6.234375 -6.378906 6.140625 -6.296875 L 3.90625 -4 C 3.8125 -3.90625 3.707031 -3.851562 3.59375 -3.84375 C 3.476562 -3.84375 3.375 -3.890625 3.28125 -3.984375 L -6.09375 -13.140625 C -6.175781 -13.222656 -6.257812 -13.222656 -6.34375 -13.140625 L -9.109375 -10.3125 C -9.203125 -10.21875 -9.304688 -10.171875 -9.421875 -10.171875 C -9.535156 -10.171875 -9.640625 -10.210938 -9.734375 -10.296875 L -11.625 -12.140625 C -11.707031 -12.234375 -11.75 -12.335938 -11.75 -12.453125 C -11.757812 -12.566406 -11.71875 -12.671875 -11.625 -12.765625 Z M -2.875 -21.71875 "/></g></g></g><g fill="#161616" fill-opacity="1"><g transform="translate(132.626654, 124.673353)"><g><path d="M 6.359375 -4.234375 C 5.273438 -3.453125 4.164062 -2.984375 3.03125 -2.828125 C 1.90625 -2.671875 0.835938 -2.820312 -0.171875 -3.28125 C -1.191406 -3.75 -2.078125 -4.503906 -2.828125 -5.546875 L -5.6875 -9.546875 C -6.414062 -10.566406 -6.832031 -11.625 -6.9375 -12.71875 C -7.039062 -13.820312 -6.835938 -14.882812 -6.328125 -15.90625 C -5.828125 -16.9375 -5.035156 -17.84375 -3.953125 -18.625 C -2.867188 -19.394531 -1.753906 -19.859375 -0.609375 -20.015625 C 0.523438 -20.171875 1.597656 -20.019531 2.609375 -19.5625 C 3.617188 -19.113281 4.488281 -18.378906 5.21875 -17.359375 L 8.078125 -13.359375 C 8.828125 -12.316406 9.253906 -11.238281 9.359375 -10.125 C 9.472656 -9.019531 9.269531 -7.953125 8.75 -6.921875 C 8.238281 -5.898438 7.441406 -5.003906 6.359375 -4.234375 Z M 4.328125 -7.0625 C 4.960938 -7.519531 5.328125 -8.097656 5.421875 -8.796875 C 5.523438 -9.492188 5.328125 -10.191406 4.828125 -10.890625 L 1.859375 -15.03125 C 1.367188 -15.71875 0.773438 -16.128906 0.078125 -16.265625 C -0.617188 -16.398438 -1.285156 -16.238281 -1.921875 -15.78125 C -2.554688 -15.320312 -2.914062 -14.742188 -3 -14.046875 C -3.082031 -13.359375 -2.878906 -12.671875 -2.390625 -11.984375 L 0.578125 -7.84375 C 1.078125 -7.144531 1.664062 -6.722656 2.34375 -6.578125 C 3.03125 -6.441406 3.691406 -6.601562 4.328125 -7.0625 Z M 4.328125 -7.0625 "/></g></g></g><g fill="#161616" fill-opacity="1"><g transform="translate(144.732303, 115.96146)"><g><path d="M 7 -13.296875 C 6.945312 -13.242188 6.929688 -13.191406 6.953125 -13.140625 C 6.972656 -13.085938 7.019531 -13.066406 7.09375 -13.078125 C 8.738281 -13.003906 9.953125 -12.144531 10.734375 -10.5 C 11.441406 -9.007812 11.457031 -7.660156 10.78125 -6.453125 C 10.101562 -5.242188 8.929688 -4.242188 7.265625 -3.453125 L 1.5 -0.703125 C 1.375 -0.648438 1.253906 -0.640625 1.140625 -0.671875 C 1.035156 -0.710938 0.957031 -0.789062 0.90625 -0.90625 L -6.109375 -15.6875 C -6.160156 -15.800781 -6.164062 -15.910156 -6.125 -16.015625 C -6.09375 -16.128906 -6.015625 -16.210938 -5.890625 -16.265625 L -0.296875 -18.9375 C 1.515625 -19.789062 3.046875 -20.097656 4.296875 -19.859375 C 5.546875 -19.617188 6.535156 -18.738281 7.265625 -17.21875 C 7.953125 -15.757812 7.863281 -14.453125 7 -13.296875 Z M -0.953125 -14.75 C -1.054688 -14.695312 -1.082031 -14.617188 -1.03125 -14.515625 L 0.25 -11.8125 C 0.300781 -11.707031 0.378906 -11.679688 0.484375 -11.734375 L 2.640625 -12.765625 C 3.242188 -13.046875 3.644531 -13.390625 3.84375 -13.796875 C 4.050781 -14.210938 4.039062 -14.660156 3.8125 -15.140625 C 3.582031 -15.628906 3.238281 -15.925781 2.78125 -16.03125 C 2.332031 -16.144531 1.804688 -16.0625 1.203125 -15.78125 Z M 5.75 -6.625 C 6.34375 -6.90625 6.738281 -7.265625 6.9375 -7.703125 C 7.132812 -8.140625 7.113281 -8.613281 6.875 -9.125 C 6.632812 -9.625 6.289062 -9.9375 5.84375 -10.0625 C 5.394531 -10.1875 4.863281 -10.101562 4.25 -9.8125 L 1.921875 -8.703125 C 1.816406 -8.648438 1.785156 -8.570312 1.828125 -8.46875 L 3.203125 -5.59375 C 3.242188 -5.488281 3.316406 -5.460938 3.421875 -5.515625 Z M 5.75 -6.625 "/></g></g></g><g fill="#161616" fill-opacity="1"><g transform="translate(157.993705, 109.518421)"><g><path d="M 12.171875 -3.171875 C 11.921875 -3.109375 11.734375 -3.1875 11.609375 -3.40625 L 10.546875 -5.21875 C 10.503906 -5.3125 10.429688 -5.34375 10.328125 -5.3125 L 4.9375 -3.90625 C 4.832031 -3.882812 4.773438 -3.820312 4.765625 -3.71875 L 4.75 -1.625 C 4.75 -1.363281 4.617188 -1.203125 4.359375 -1.140625 L 1 -0.265625 C 0.832031 -0.222656 0.707031 -0.234375 0.625 -0.296875 C 0.550781 -0.367188 0.519531 -0.488281 0.53125 -0.65625 L 1.40625 -17.796875 C 1.414062 -18.046875 1.550781 -18.207031 1.8125 -18.28125 L 6.03125 -19.375 C 6.289062 -19.445312 6.488281 -19.375 6.625 -19.15625 L 15.765625 -4.625 C 15.796875 -4.59375 15.820312 -4.535156 15.84375 -4.453125 C 15.894531 -4.253906 15.796875 -4.117188 15.546875 -4.046875 Z M 4.890625 -7.3125 C 4.910156 -7.207031 4.96875 -7.164062 5.0625 -7.1875 L 8.59375 -8.109375 C 8.65625 -8.128906 8.691406 -8.160156 8.703125 -8.203125 C 8.722656 -8.253906 8.71875 -8.304688 8.6875 -8.359375 L 5.21875 -14.203125 C 5.1875 -14.285156 5.148438 -14.320312 5.109375 -14.3125 C 5.066406 -14.300781 5.046875 -14.25 5.046875 -14.15625 L 4.875 -7.359375 Z M 4.890625 -7.3125 "/></g></g></g><g fill="#161616" fill-opacity="1"><g transform="translate(174.093899, 105.372342)"><g><path d="M 10.53125 -0.703125 C 10.289062 -0.691406 10.117188 -0.796875 10.015625 -1.015625 L 6.71875 -7.21875 C 6.6875 -7.300781 6.625 -7.335938 6.53125 -7.328125 L 5 -7.21875 C 4.882812 -7.21875 4.828125 -7.160156 4.828125 -7.046875 L 5.25 -0.796875 C 5.257812 -0.671875 5.222656 -0.5625 5.140625 -0.46875 C 5.066406 -0.382812 4.960938 -0.335938 4.828125 -0.328125 L 1.65625 -0.109375 C 1.519531 -0.0976562 1.40625 -0.128906 1.3125 -0.203125 C 1.226562 -0.285156 1.179688 -0.390625 1.171875 -0.515625 L 0.078125 -16.84375 C 0.0664062 -16.96875 0.0976562 -17.070312 0.171875 -17.15625 C 0.253906 -17.25 0.363281 -17.300781 0.5 -17.3125 L 7.640625 -17.796875 C 8.710938 -17.867188 9.675781 -17.707031 10.53125 -17.3125 C 11.382812 -16.925781 12.0625 -16.34375 12.5625 -15.5625 C 13.070312 -14.78125 13.363281 -13.863281 13.4375 -12.8125 C 13.507812 -11.738281 13.300781 -10.78125 12.8125 -9.9375 C 12.332031 -9.101562 11.632812 -8.472656 10.71875 -8.046875 C 10.601562 -7.984375 10.570312 -7.898438 10.625 -7.796875 L 14.21875 -1.46875 L 14.28125 -1.265625 C 14.289062 -1.054688 14.164062 -0.945312 13.90625 -0.9375 Z M 4.53125 -14.0625 C 4.414062 -14.0625 4.363281 -14.003906 4.375 -13.890625 L 4.59375 -10.515625 C 4.601562 -10.398438 4.664062 -10.34375 4.78125 -10.34375 L 7.46875 -10.53125 C 8.070312 -10.570312 8.550781 -10.769531 8.90625 -11.125 C 9.257812 -11.476562 9.414062 -11.9375 9.375 -12.5 C 9.34375 -13.070312 9.125 -13.515625 8.71875 -13.828125 C 8.320312 -14.148438 7.820312 -14.289062 7.21875 -14.25 Z M 4.53125 -14.0625 "/></g></g></g><g fill="#161616" fill-opacity="1"><g transform="translate(189.296877, 104.669454)"><g/></g></g><g fill="#161616" fill-opacity="1"><g transform="translate(194.285318, 104.541983)"><g><path d="M 12.359375 2.34375 C 12.097656 2.300781 11.957031 2.144531 11.9375 1.875 L 11.78125 -0.1875 C 11.769531 -0.289062 11.707031 -0.351562 11.59375 -0.375 L 6.140625 -1.40625 C 6.035156 -1.425781 5.960938 -1.394531 5.921875 -1.3125 L 4.96875 0.5625 C 4.863281 0.800781 4.679688 0.894531 4.421875 0.84375 L 1.015625 0.1875 C 0.847656 0.15625 0.738281 0.09375 0.6875 0 C 0.644531 -0.101562 0.664062 -0.222656 0.75 -0.359375 L 8.875 -15.484375 C 9 -15.710938 9.195312 -15.800781 9.46875 -15.75 L 13.75 -14.9375 C 14.007812 -14.882812 14.148438 -14.734375 14.171875 -14.484375 L 16.234375 2.578125 C 16.242188 2.609375 16.242188 2.664062 16.234375 2.75 C 16.191406 2.957031 16.039062 3.039062 15.78125 3 Z M 7.5625 -4.5 C 7.539062 -4.40625 7.570312 -4.351562 7.65625 -4.34375 L 11.234375 -3.65625 C 11.304688 -3.644531 11.359375 -3.65625 11.390625 -3.6875 C 11.421875 -3.71875 11.429688 -3.757812 11.421875 -3.8125 L 10.8125 -10.609375 C 10.8125 -10.691406 10.789062 -10.738281 10.75 -10.75 C 10.707031 -10.757812 10.664062 -10.722656 10.625 -10.640625 L 7.5625 -4.546875 Z M 7.5625 -4.5 "/></g></g></g><g fill="#161616" fill-opacity="1"><g transform="translate(210.609808, 107.69113)"><g><path d="M 9.828125 3.875 C 9.597656 3.78125 9.476562 3.613281 9.46875 3.375 L 9.15625 -3.640625 C 9.15625 -3.722656 9.113281 -3.785156 9.03125 -3.828125 L 7.609375 -4.390625 C 7.492188 -4.429688 7.414062 -4.398438 7.375 -4.296875 L 5.078125 1.53125 C 5.035156 1.644531 4.957031 1.722656 4.84375 1.765625 C 4.738281 1.816406 4.625 1.820312 4.5 1.78125 L 1.546875 0.609375 C 1.421875 0.554688 1.332031 0.472656 1.28125 0.359375 C 1.238281 0.253906 1.238281 0.144531 1.28125 0.03125 L 7.28125 -15.1875 C 7.332031 -15.300781 7.410156 -15.378906 7.515625 -15.421875 C 7.628906 -15.472656 7.75 -15.472656 7.875 -15.421875 L 14.53125 -12.796875 C 15.53125 -12.398438 16.328125 -11.84375 16.921875 -11.125 C 17.523438 -10.414062 17.890625 -9.597656 18.015625 -8.671875 C 18.140625 -7.753906 18.007812 -6.804688 17.625 -5.828125 C 17.226562 -4.816406 16.632812 -4.035156 15.84375 -3.484375 C 15.0625 -2.941406 14.160156 -2.671875 13.140625 -2.671875 C 13.015625 -2.671875 12.945312 -2.609375 12.9375 -2.484375 L 13.46875 4.75 L 13.4375 4.953125 C 13.363281 5.148438 13.207031 5.203125 12.96875 5.109375 Z M 10.125 -10.78125 C 10.007812 -10.820312 9.929688 -10.785156 9.890625 -10.671875 L 8.65625 -7.53125 C 8.613281 -7.414062 8.648438 -7.335938 8.765625 -7.296875 L 11.265625 -6.3125 C 11.828125 -6.082031 12.34375 -6.054688 12.8125 -6.234375 C 13.28125 -6.410156 13.617188 -6.757812 13.828125 -7.28125 C 14.035156 -7.8125 14.023438 -8.304688 13.796875 -8.765625 C 13.578125 -9.222656 13.1875 -9.566406 12.625 -9.796875 Z M 10.125 -10.78125 "/></g></g></g><g fill="#161616" fill-opacity="1"><g transform="translate(224.347717, 113.072702)"><g><path d="M 8.984375 5.546875 C 8.773438 5.410156 8.691406 5.222656 8.734375 4.984375 L 9.65625 -1.96875 C 9.675781 -2.050781 9.644531 -2.117188 9.5625 -2.171875 L 8.265625 -2.96875 C 8.160156 -3.03125 8.078125 -3.015625 8.015625 -2.921875 L 4.734375 2.40625 C 4.660156 2.507812 4.566406 2.578125 4.453125 2.609375 C 4.347656 2.640625 4.238281 2.617188 4.125 2.546875 L 1.40625 0.875 C 1.289062 0.800781 1.21875 0.703125 1.1875 0.578125 C 1.164062 0.460938 1.191406 0.351562 1.265625 0.25 L 9.859375 -13.671875 C 9.921875 -13.773438 10.003906 -13.835938 10.109375 -13.859375 C 10.222656 -13.890625 10.335938 -13.867188 10.453125 -13.796875 L 16.546875 -10.046875 C 17.460938 -9.472656 18.15625 -8.78125 18.625 -7.96875 C 19.101562 -7.15625 19.320312 -6.285156 19.28125 -5.359375 C 19.238281 -4.441406 18.941406 -3.535156 18.390625 -2.640625 C 17.816406 -1.710938 17.085938 -1.046875 16.203125 -0.640625 C 15.328125 -0.242188 14.394531 -0.132812 13.40625 -0.3125 C 13.28125 -0.332031 13.203125 -0.285156 13.171875 -0.171875 L 12.421875 7.0625 L 12.359375 7.265625 C 12.242188 7.441406 12.078125 7.457031 11.859375 7.3125 Z M 11.875 -8.8125 C 11.769531 -8.875 11.6875 -8.859375 11.625 -8.765625 L 9.84375 -5.875 C 9.78125 -5.78125 9.800781 -5.703125 9.90625 -5.640625 L 12.1875 -4.234375 C 12.707031 -3.910156 13.210938 -3.789062 13.703125 -3.875 C 14.203125 -3.96875 14.597656 -4.253906 14.890625 -4.734375 C 15.191406 -5.222656 15.273438 -5.707031 15.140625 -6.1875 C 15.003906 -6.675781 14.675781 -7.082031 14.15625 -7.40625 Z M 11.875 -8.8125 "/></g></g></g><g fill="#161616" fill-opacity="1"><g transform="translate(236.930939, 120.850813)"><g><path d="M 19.46875 -1.71875 C 19.382812 -1.613281 19.28125 -1.554688 19.15625 -1.546875 C 19.039062 -1.535156 18.9375 -1.570312 18.84375 -1.65625 L 13.203125 -6.65625 C 13.117188 -6.726562 13.039062 -6.722656 12.96875 -6.640625 L 11.03125 -4.453125 C 10.945312 -4.359375 10.945312 -4.273438 11.03125 -4.203125 L 14.578125 -1.046875 C 14.679688 -0.960938 14.734375 -0.863281 14.734375 -0.75 C 14.742188 -0.632812 14.703125 -0.53125 14.609375 -0.4375 L 12.90625 1.5 C 12.8125 1.601562 12.707031 1.65625 12.59375 1.65625 C 12.488281 1.664062 12.382812 1.628906 12.28125 1.546875 L 8.734375 -1.609375 C 8.648438 -1.679688 8.570312 -1.675781 8.5 -1.59375 L 6.40625 0.765625 C 6.332031 0.847656 6.335938 0.925781 6.421875 1 L 12.0625 6 C 12.15625 6.082031 12.203125 6.179688 12.203125 6.296875 C 12.210938 6.410156 12.171875 6.519531 12.078125 6.625 L 10.359375 8.578125 C 10.273438 8.671875 10.171875 8.722656 10.046875 8.734375 C 9.929688 8.742188 9.828125 8.707031 9.734375 8.625 L 1.234375 1.09375 C 1.140625 1.007812 1.085938 0.90625 1.078125 0.78125 C 1.078125 0.664062 1.117188 0.5625 1.203125 0.46875 L 12.046875 -11.765625 C 12.128906 -11.859375 12.226562 -11.90625 12.34375 -11.90625 C 12.46875 -11.914062 12.578125 -11.878906 12.671875 -11.796875 L 21.171875 -4.265625 C 21.265625 -4.179688 21.3125 -4.082031 21.3125 -3.96875 C 21.320312 -3.851562 21.285156 -3.75 21.203125 -3.65625 Z M 19.46875 -1.71875 "/></g></g></g><g fill="#161616" fill-opacity="1"><g transform="translate(247.369515, 130.007815)"><g><path d="M 14.53125 3.765625 C 14.476562 3.742188 14.429688 3.75 14.390625 3.78125 C 14.347656 3.8125 14.332031 3.859375 14.34375 3.921875 C 14.65625 5.546875 14.097656 6.929688 12.671875 8.078125 C 11.378906 9.097656 10.066406 9.414062 8.734375 9.03125 C 7.398438 8.644531 6.160156 7.734375 5.015625 6.296875 L 1.03125 1.296875 C 0.945312 1.191406 0.910156 1.078125 0.921875 0.953125 C 0.941406 0.835938 1 0.742188 1.09375 0.671875 L 13.890625 -9.53125 C 13.984375 -9.601562 14.085938 -9.628906 14.203125 -9.609375 C 14.328125 -9.597656 14.429688 -9.539062 14.515625 -9.4375 L 18.375 -4.59375 C 19.625 -3.019531 20.269531 -1.597656 20.3125 -0.328125 C 20.363281 0.941406 19.726562 2.101562 18.40625 3.15625 C 17.144531 4.164062 15.851562 4.367188 14.53125 3.765625 Z M 14.140625 -4.28125 C 14.066406 -4.375 13.988281 -4.382812 13.90625 -4.3125 L 11.5625 -2.4375 C 11.46875 -2.363281 11.457031 -2.28125 11.53125 -2.1875 L 13.015625 -0.328125 C 13.429688 0.191406 13.863281 0.503906 14.3125 0.609375 C 14.769531 0.710938 15.207031 0.597656 15.625 0.265625 C 16.050781 -0.0664062 16.257812 -0.46875 16.25 -0.9375 C 16.25 -1.40625 16.039062 -1.898438 15.625 -2.421875 Z M 7.765625 4.109375 C 8.171875 4.617188 8.609375 4.921875 9.078125 5.015625 C 9.546875 5.109375 10.003906 4.976562 10.453125 4.625 C 10.890625 4.28125 11.113281 3.875 11.125 3.40625 C 11.144531 2.9375 10.945312 2.4375 10.53125 1.90625 L 8.921875 -0.109375 C 8.847656 -0.203125 8.765625 -0.210938 8.671875 -0.140625 L 6.1875 1.84375 C 6.09375 1.914062 6.082031 2 6.15625 2.09375 Z M 7.765625 4.109375 "/></g></g></g><g fill="#161616" fill-opacity="1"><g transform="translate(256.633088, 141.573447)"><g><path d="M 3.390625 6.84375 C 2.753906 5.675781 2.429688 4.519531 2.421875 3.375 C 2.410156 2.238281 2.695312 1.191406 3.28125 0.234375 C 3.875 -0.710938 4.734375 -1.488281 5.859375 -2.09375 L 10.1875 -4.421875 C 11.289062 -5.015625 12.394531 -5.296875 13.5 -5.265625 C 14.613281 -5.234375 15.644531 -4.894531 16.59375 -4.25 C 17.539062 -3.613281 18.332031 -2.710938 18.96875 -1.546875 C 19.59375 -0.378906 19.910156 0.773438 19.921875 1.921875 C 19.941406 3.078125 19.660156 4.128906 19.078125 5.078125 C 18.503906 6.023438 17.664062 6.796875 16.5625 7.390625 L 12.234375 9.71875 C 11.109375 10.320312 9.984375 10.609375 8.859375 10.578125 C 7.742188 10.554688 6.707031 10.21875 5.75 9.5625 C 4.800781 8.914062 4.015625 8.007812 3.390625 6.84375 Z M 6.453125 5.1875 C 6.828125 5.875 7.351562 6.3125 8.03125 6.5 C 8.71875 6.6875 9.4375 6.578125 10.1875 6.171875 L 14.671875 3.75 C 15.410156 3.351562 15.890625 2.816406 16.109375 2.140625 C 16.335938 1.472656 16.265625 0.796875 15.890625 0.109375 C 15.515625 -0.578125 14.988281 -1.007812 14.3125 -1.1875 C 13.632812 -1.363281 12.925781 -1.253906 12.1875 -0.859375 L 7.703125 1.5625 C 6.953125 1.96875 6.460938 2.5 6.234375 3.15625 C 6.003906 3.820312 6.078125 4.5 6.453125 5.1875 Z M 6.453125 5.1875 "/></g></g></g><g fill="#161616" fill-opacity="1"><g transform="translate(263.710073, 154.755067)"><g><path d="M 0.515625 1.578125 C 0.472656 1.441406 0.476562 1.320312 0.53125 1.21875 C 0.582031 1.113281 0.671875 1.039062 0.796875 1 L 16.3125 -4.171875 C 16.425781 -4.210938 16.535156 -4.207031 16.640625 -4.15625 C 16.742188 -4.101562 16.816406 -4.007812 16.859375 -3.875 L 17.875 -0.859375 C 17.914062 -0.734375 17.910156 -0.613281 17.859375 -0.5 C 17.804688 -0.394531 17.722656 -0.320312 17.609375 -0.28125 L 5.15625 3.875 C 5.050781 3.90625 5.019531 3.972656 5.0625 4.078125 L 7.46875 11.34375 C 7.519531 11.46875 7.515625 11.582031 7.453125 11.6875 C 7.390625 11.789062 7.296875 11.863281 7.171875 11.90625 L 4.703125 12.734375 C 4.578125 12.773438 4.460938 12.769531 4.359375 12.71875 C 4.265625 12.664062 4.191406 12.578125 4.140625 12.453125 Z M 0.515625 1.578125 "/></g></g></g><g fill="#161616" fill-opacity="1"><g transform="translate(267.957118, 168.366364)"><g/></g></g></svg>